inDegrees=yes
name=ik_lifting_orientations
DataType=double
version=3
OpenSimVersion=4.5-2024-01-10-34fd6af
endheader
time	pelvis_tilt	pelvis_list	pelvis_rotation	pelvis_tx	pelvis_ty	pelvis_tz	hip_flexion_r	hip_adduction_r	hip_rotation_r	knee_angle_r	knee_angle_r_beta	ankle_angle_r	subtalar_angle_r	mtp_angle_r	hip_flexion_l	hip_adduction_l	hip_rotation_l	knee_angle_l	knee_angle_l_beta	ankle_angle_l	subtalar_angle_l	mtp_angle_l	lumbar_extension	lumbar_bending	lumbar_rotation	arm_flex_r	arm_add_r	arm_rot_r	elbow_flex_r	pro_sup_r	wrist_flex_r	wrist_dev_r	arm_flex_l	arm_add_l	arm_rot_l	elbow_flex_l	pro_sup_l	wrist_flex_l	wrist_dev_l
1.71	1.946291856781272	-1.148501002374426	-93.44343992093285	0	0.9399999998497812	0	43.29157992412924	-10.02437459633983	0	59.28351507695605	1.034692530248583	-4.996782781264566	0	0	43.29157992412924	-10.02437459633983	0	59.28351507695605	1.034692530248583	-4.996782781264566	0	0	7.900318398269033	-3.491151531454643	3.362590660204957	51.74618417597042	5.205170326813988	-8.251170705193882	3.265093262366157	45.00653655089958	0	0	0	-11.76049734907166	0	75.64341930967439	45.00653655089958	0	0
1.72	1.950490302843803	-1.16179072051742	-93.44612334782406	0	0.9399999998497812	0	43.3311530265244	-10.02268713048095	0	59.29667791855331	1.034922265173373	-4.997056433188511	0	0	43.3311530265244	-10.02268713048095	0	59.29667791855331	1.034922265173373	-4.997056433188511	0	0	7.888947629210876	-3.490741080407443	3.369498810159562	51.73048305592971	5.197301126987385	-8.244562014394143	3.292080877929506	45.00616273606732	0	0	0	-11.8001798185394	0	75.62852481210132	45.00616273606732	0	0
1.73	1.940698409364409	-1.143501773248343	-93.44541236179346	0	0.9399999998497812	0	43.369690812085	-10.02097838253897	0	59.30945271575278	1.035145227445779	-4.997337450700145	0	0	43.369690812085	-10.02097838253897	0	59.30945271575278	1.035145227445779	-4.997337450700145	0	0	7.923538520621502	-3.478212297405343	3.364376783232964	51.7075163951544	5.19260150551879	-8.241216473035342	3.291720136445584	45.00578816295071	0	0	0	-11.83848283066952	0	75.61402030824739	45.00578816295071	0	0
1.74	1.942163783617545	-1.161571070695855	-93.45341239321974	0	0.9399999998497812	0	43.40771170483418	-10.01940327056986	0	59.32213748319106	1.035366618402426	-4.997589646063358	0	0	43.40771170483418	-10.01940327056986	0	59.32213748319106	1.035366618402426	-4.997589646063358	0	0	7.891297785705141	-3.493955013126739	3.368736136936619	51.7268073728711	5.217141277981244	-8.257186184683871	3.294965153484554	45.00543621993315	0	0	0	-11.87681273134077	0	75.59970986801618	45.00543621993315	0	0
1.75	1.946741307355188	-1.16085532683398	-93.44522021667406	0	0.9399999998497812	0	43.40836255799591	-10.01937551226427	0	59.32235451106926	1.035370406253469	-4.997594145333273	0	0	43.40836255799591	-10.01937551226427	0	59.32235451106926	1.035370406253469	-4.997594145333273	0	0	7.673985772312795	-2.579618616216624	4.01550893180612	51.84367174450736	4.09842832877942	-7.897224249707401	2.248809119989683	45.00543007047934	0	0	0	-11.87746566073688	0	75.5994649018466	45.00543007047934	0	0
1.76	1.948856418894209	-1.154577411524508	-93.45057237985829	0	0.9399999998497812	0	43.44957249596962	-10.01782211722117	0	59.33623456348459	1.035612658868466	-4.997834030187135	0	0	43.44957249596962	-10.01782211722117	0	59.33623456348459	1.035612658868466	-4.997834030187135	0	0	7.683324412879656	-2.575195874129914	4.018067987626949	51.18793259480715	4.077306709786082	-7.874905448169858	3.514224366028333	45.00507378223708	0	0	0	-11.91987019728795	0	75.58395349158263	45.00507378223708	0	0
1.77	1.935655714744241	-1.134883685011437	-93.44016434865013	0	0.9399999998497812	0	43.45640123898082	-10.01756720963946	0	59.33853645300221	1.035652834419566	-4.997873322499427	0	0	43.45640123898082	-10.01756720963946	0	59.33853645300221	1.035652834419566	-4.997873322499427	0	0	7.724506996019458	-2.564928264608893	4.014121480471095	51.0677234716284	4.06125589228417	-7.88217100400416	3.692117957782996	45.00501520208329	0	0	0	-11.92692002410861	0	75.58138314325056	45.00501520208329	0	0
1.78	1.673512540606716	-1.428095917277231	-93.07033294787169	0	0.9399999998497812	0	43.45673311142119	-10.01755432675099	0	59.33865017402167	1.035654819225784	-4.997875347423523	0	0	43.45673311142119	-10.01755432675099	0	59.33865017402167	1.035654819225784	-4.997875347423523	0	0	7.391546883424167	-2.376617723535615	3.611971540347704	51.15709492512401	4.069472520774805	-7.890405814227727	3.544244289668665	45.0050122807043	0	0	0	-11.92726296721379	0	75.58125822792114	45.0050122807043	0	0
1.79	1.401558008417294	-1.704479741430389	-92.68863193081054	0	0.9399999998497812	0	43.4570131258968	-10.01754346134764	0	59.3387461021513	1.035656493487492	-4.99787705479941	0	0	43.4570131258968	-10.01754346134764	0	59.3387461021513	1.035656493487492	-4.99787705479941	0	0	7.060330026384284	-2.183265187350167	3.212319624670309	50.74359525418964	3.985666278982153	-7.862570986048531	3.961933391175871	45.00500981641299	0	0	0	-11.92755229492317	0	75.58115283169808	45.00500981641299	0	0
1.8	1.395330780699407	-1.705787001524321	-92.68394506508139	0	0.9399999998497812	0	43.45750924895287	-10.0175237443887	0	59.338912842409	1.035659403653984	-4.997880167318631	0	0	43.45750924895287	-10.0175237443887	0	59.338912842409	1.035659403653984	-4.997880167318631	0	0	7.045955299177832	-1.835131408230139	2.71611931030821	50.60610483588339	3.710225618138375	-7.0150917000615	3.670593106998369	45.00500536336816	0	0	0	-11.92805798143643	0	75.58096609588151	45.00500536336816	0	0
1.81	1.411156789411999	-1.727170141770815	-92.69476076231018	0	0.9399999998497812	0	43.45784651247089	-10.01751035985379	0	59.3390262501788	1.035661382992964	-4.997882279198642	0	0	43.45784651247089	-10.01751035985379	0	59.3390262501788	1.035661382992964	-4.997882279198642	0	0	7.001698741549129	-1.536839363943578	2.281500363129358	50.6045285135172	3.821870023096909	-6.485536310394351	4.282005357351426	45.00500233942476	0	0	0	-11.92840190502751	0	75.5808391531402	45.00500233942476	0	0
1.82	1.400940340845497	-1.687123582325601	-92.67219928496986	0	0.9399999998497812	0	43.4812937850375	-10.01658169517356	0	59.34687653649739	1.035798396336448	-4.998027986142116	0	0	43.4812937850375	-10.01658169517356	0	59.34687653649739	1.035798396336448	-4.998027986142116	0	0	7.061333095316511	-1.503365279310202	2.247499128617403	50.56446466889474	3.740527533418292	-6.424429863175715	4.187964373580484	45.0047919918168	0	0	0	-11.95223197090756	0	75.57201378630786	45.0047919918168	0	0
1.83	1.395088239159217	-1.702935829778483	-92.68243728812156	0	0.9399999998497812	0	43.48175102871701	-10.01656426368739	0	59.34703090141633	1.035801090512533	-4.998030690009506	0	0	43.48175102871701	-10.01656426368739	0	59.34703090141633	1.035801090512533	-4.998030690009506	0	0	7.019479855748908	-1.508613281763197	2.247710229406673	50.03962341845964	3.681432594482859	-6.373742478952188	4.63092834681605	45.00478800701848	0	0	0	-11.95270200393222	0	75.57184168125684	45.00478800701848	0	0
1.84	1.393719846956523	-1.698299506220892	-92.68340291249224	0	0.9399999998497812	0	43.48222232347469	-10.01654624705878	0	59.34718955376005	1.035803859518297	-4.99803348553518	0	0	43.48222232347469	-10.01654624705878	0	59.34718955376005	1.035803859518297	-4.99803348553518	0	0	7.043543377618239	-1.5009451998029	2.24957228621296	49.96546128817244	4.112510649361276	-6.57138309663677	3.67787302366138	45.00478389001646	0	0	0	-11.95318554135197	0	75.57166428775045	45.00478389001646	0	0
